#!OML:ASF H:\BabyWalks\Project 1\Capture day 1\Session 1\baby.ASF
:FULLY-SPECIFIED
:DEGREES
570
root 23.9404 17.3866 -1.27865 517.357 102.112 506.511
lowerback 19.5427 1.84595 1.44982
upperback 7.41154 3.05493 -0.46837
thorax -2.82955 1.70437 -1.97872
lowerneck -2.24944 4.93951 9.61897
upperneck 0.305069 6.43311 -7.82012
head 1.13312 3.18288 -4.16544
rclavicle 4.01545e-014 -2.66371e-014
rhumerus -39.5506 12.8395 -84.0998
rradius 56.6694
rwrist -2.39145
rhand -9.16605 -15.5398
rfingers 7.12502
rthumb 16.7866 -44.8342
lclavicle 4.01545e-014 -2.66371e-014
lhumerus -35.0527 -4.40344 75.724
lradius 48.3365
lwrist -0.595138
lhand 5.74425 13.8623
lfingers 7.12502
lthumb 31.0796 41.2485
rfemur 14.8986 8.55745 21.0243
rtibia -4.13472e-014
rfoot -10.3624 -4.27234
rtoes -24.0071
lfemur -37.6414 6.73799 -12.6164
ltibia 43.0641
lfoot -15.8077 -0.0554566
ltoes -4.75144
571
root 23.947 17.379 -1.2742 516.908 102.011 506.139
lowerback 19.5162 1.83854 1.51439
upperback 7.4223 3.05899 -0.444583
thorax -2.80225 1.70797 -1.98924
lowerneck -2.23133 4.97682 9.63481
upperneck 0.335373 6.48544 -7.83506
head 1.14617 3.20942 -4.17215
rclavicle -2.42517e-014 3.18055e-015
rhumerus -39.5534 12.6342 -83.946
rradius 56.3075
rwrist -2.16875
rhand -9.15068 -15.5606
rfingers 7.12502
rthumb 16.8014 -44.8537
lclavicle -2.42517e-014 3.18055e-015
lhumerus -35.1811 -4.3763 75.8108
lradius 48.3598
lwrist -0.570562
lhand 5.58938 13.7917
lfingers 7.12502
lthumb 30.932 41.2061
rfemur 15.0449 8.45355 21.0711
rtibia 3.49861e-014
rfoot -10.4041 -4.2207
rtoes -24.1307
lfemur -37.6313 6.53709 -12.5599
ltibia 43.2596
lfoot -15.9575 0.0813756
ltoes -4.60738
572
root 23.9557 17.3711 -1.27065 516.475 101.906 505.789
lowerback 19.4886 1.83362 1.56781
upperback 7.4291 3.06389 -0.422978
thorax -2.77908 1.71169 -1.99604
lowerneck -2.21044 5.0107 9.64516
upperneck 0.370856 6.53355 -7.84055
head 1.15938 3.23396 -4.17458
rclavicle 1.07344e-014 -5.96354e-015
rhumerus -39.5655 12.4173 -83.7842
rradius 55.9364
rwrist -1.94332
rhand -9.14078 -15.5783
rfingers 7.12502
rthumb 16.8109 -44.8706
lclavicle 1.07344e-014 -5.96354e-015
lhumerus -35.3086 -4.35607 75.8972
lradius 48.4008
lwrist -0.548427
lhand 5.41244 13.7077
lfingers 7.12502
lthumb 30.7633 41.154
rfemur 15.2037 8.34791 21.106
rtibia 4.45278e-014
rfoot -10.4487 -4.16463
rtoes -24.2588
lfemur -37.6143 6.33092 -12.5166
ltibia 43.4646
lfoot -16.1195 0.221809
ltoes -4.45633
573
root 23.9665 17.3627 -1.26788 516.052 101.798 505.455
lowerback 19.4611 1.8319 1.60821
upperback 7.43148 3.07025 -0.402084
thorax -2.76124 1.71573 -1.99668
lowerneck -2.17977 5.04073 9.64597
upperneck 0.406244 6.57737 -7.83434
head 1.16945 3.25655 -4.17136
rclavicle -2.78299e-015 -5.1684e-015
rhumerus -39.5897 12.1919 -83.6146
rradius 55.5574
rwrist -1.71835
rhand -9.13378 -15.5956
rfingers 7.12502
rthumb 16.8177 -44.8873
lclavicle -2.78299e-015 -5.1684e-015
lhumerus -35.4389 -4.34206 75.9837
lradius 48.4611
lwrist -0.522515
lhand 5.22447 13.6255
lfingers 7.12502
lthumb 30.5841 41.1054
rfemur 15.3774 8.24261 21.1329
rtibia -9.54166e-015
rfoot -10.4917 -4.10784
rtoes -24.3982
lfemur -37.5863 6.12464 -12.4837
ltibia 43.6767
lfoot -16.2946 0.363057
ltoes -4.28762
574
root 23.9796 17.3541 -1.26605 515.627 101.692 505.124
lowerback 19.4317 1.83334 1.64247
upperback 7.42998 3.07917 -0.384246
thorax -2.74661 1.72081 -1.99766
lowerneck -2.14862 5.06755 9.64442
upperneck 0.44357 6.61684 -7.81714
head 1.17904 3.27706 -4.1639
rclavicle -4.05521e-014 -5.28767e-014
rhumerus -39.6239 11.9542 -83.4412
rradius 55.1711
rwrist -1.49261
rhand -9.13272 -15.6137
rfingers 7.12502
rthumb 16.8187 -44.9053
lclavicle -4.05521e-014 -5.28767e-014
lhumerus -35.566 -4.33156 76.0658
lradius 48.5351
lwrist -0.493353
lhand 5.0285 13.5418
lfingers 7.12502
lthumb 30.3972 41.0565
rfemur 15.5631 8.13941 21.1562
rtibia 8.5875e-014
rfoot -10.5287 -4.05381
rtoes -24.5615
lfemur -37.5474 5.92107 -12.4571
ltibia 43.8929
lfoot -16.4814 0.502012
ltoes -4.10354
575
root 23.9953 17.3452 -1.26515 515.193 101.589 504.79
lowerback 19.4005 1.83641 1.66981
upperback 7.42652 3.08865 -0.369365
thorax -2.73331 1.72602 -1.99795
lowerneck -2.1214 5.09382 9.64403
upperneck 0.483363 6.6551 -7.79138
head 1.18968 3.29696 -4.15355
rclavicle 2.78299e-015 1.47101e-014
rhumerus -39.6652 11.7096 -83.266
rradius 54.7785
rwrist -1.26908
rhand -9.13331 -15.6373
rfingers 7.12502
rthumb 16.8181 -44.929
lclavicle 2.78299e-015 1.47101e-014
lhumerus -35.6886 -4.31709 76.1419
lradius 48.6219
lwrist -0.456554
lhand 4.82974 13.464
lfingers 7.12502
lthumb 30.2076 41.0135
rfemur 15.7632 8.03841 21.1779
rtibia -4.13472e-014
rfoot -10.5566 -4.00455
rtoes -24.7413
lfemur -37.4932 5.72276 -12.4352
ltibia 44.1095
lfoot -16.6805 0.635425
ltoes -3.91469
576
root 24.0138 17.3364 -1.26526 514.754 101.489 504.459
lowerback 19.369 1.84193 1.69094
upperback 7.4222 3.09996 -0.358316
thorax -2.7208 1.73205 -1.99917
lowerneck -2.0951 5.11773 9.64331
upperneck 0.519764 6.68981 -7.75546
head 1.19853 3.31514 -4.13966
rclavicle -1.98785e-014 3.1408e-014
rhumerus -39.7128 11.4566 -83.0894
rradius 54.3809
rwrist -1.04751
rhand -9.13647 -15.6664
rfingers 7.12502
rthumb 16.8151 -44.9583
lclavicle -1.98785e-014 3.1408e-014
lhumerus -35.8016 -4.29865 76.2112
lradius 48.7148
lwrist -0.407865
lhand 4.62998 13.3862
lfingers 7.12502
lthumb 30.017 40.9704
rfemur 15.979 7.94221 21.1984
rtibia -3.18055e-015
rfoot -10.5701 -3.96194
rtoes -24.9354
lfemur -37.4178 5.53221 -12.4171
ltibia 44.3219
lfoot -16.8911 0.760538
ltoes -3.73389
577
root 24.0351 17.3278 -1.26645 514.293 101.396 504.115
lowerback 19.3394 1.84988 1.71107
upperback 7.41703 3.11406 -0.351438
thorax -2.70979 1.73947 -2.00493
lowerneck -2.07124 5.13962 9.65006
upperneck 0.554791 6.72122 -7.71352
head 1.20709 3.33169 -4.12517
rclavicle -1.94809e-014 -2.38542e-015
rhumerus -39.7673 11.1905 -82.9139
rradius 53.9787
rwrist -0.828896
rhand -9.14211 -15.7032
rfingers 7.12502
rthumb 16.8096 -44.9956
lclavicle -1.94809e-014 -2.38542e-015
lhumerus -35.9035 -4.27948 76.2731
lradius 48.8111
lwrist -0.347714
lhand 4.43218 13.3132
lfingers 7.12502
lthumb 29.8282 40.9314
rfemur 16.2118 7.8507 21.2214
rtibia 4.77083e-014
rfoot -10.5636 -3.92556
rtoes -25.1389
lfemur -37.3158 5.3505 -12.3978
ltibia 44.5233
lfoot -17.1127 0.871641
ltoes -3.55364
578
root 24.0592 17.3197 -1.26881 513.829 101.309 503.778
lowerback 19.3107 1.86009 1.72393
upperback 7.41308 3.12974 -0.348023
thorax -2.69807 1.74767 -2.01056
lowerneck -2.05066 5.16179 9.66455
upperneck 0.586072 6.7524 -7.67281
head 1.21536 3.34809 -4.1126
rclavicle 9.14409e-015 2.74323e-014
rhumerus -39.8238 10.9166 -82.7379
rradius 53.5701
rwrist -0.612849
rhand -9.16086 -15.7389
rfingers 7.12502
rthumb 16.7916 -45.0329
lclavicle 9.14409e-015 2.74323e-014
lhumerus -35.9909 -4.25234 76.3303
lradius 48.9065
lwrist -0.276977
lhand 4.23115 13.2413
lfingers 7.12502
lthumb 29.6364 40.8938
rfemur 16.4594 7.76592 21.243
rtibia 9.54166e-015
rfoot -10.5292 -3.89583
rtoes -25.3648
lfemur -37.1846 5.17822 -12.3796
ltibia 44.7069
lfoot -17.3416 0.965095
ltoes -3.37165
